<svg height="512pt" viewBox="0 0 512 512" width="512pt" xmlns="http://www.w3.org/2000/svg"><path d="m212 225c0 8.402344 6.597656 15 15 15s15-6.597656 15-15-6.597656-15-15-15-15 6.597656-15 15zm0 0"/><path d="m317 390c91.800781 0 169.199219-64.199219 189.601562-150h-57.300781c-6 17.402344-22.800781 30-42.300781 30-24.902344 0-45-20.097656-45-45 0-6.898438 1.5-13.5 4.5-19.199219l-30.300781-30.300781c-5.699219 3-12.300781 4.5-19.199219 4.5s-13.5-1.5-19.199219-4.5l-30.300781 30.300781c3 5.699219 4.5 12.300781 4.5 19.199219 0 24.902344-20.097656 45-45 45s-45-20.097656-45-45c0-6.898438 1.5-13.5 4.5-19.199219l-58.5-58.5c-3.898438 15.300781-6 31.199219-6 47.699219 0 107.402344 87.597656 195 195 195zm0 0"/><path d="m302 135c0 8.402344 6.597656 15 15 15s15-6.597656 15-15-6.597656-15-15-15-15 6.597656-15 15zm0 0"/><path d="m392 225c0 8.402344 6.597656 15 15 15s15-6.597656 15-15-6.597656-15-15-15-15 6.597656-15 15zm0 0"/><path d="m317 0c-79.199219 0-147.597656 47.699219-177.898438 115.800781l68.699219 68.699219c5.699219-3 12.300781-4.5 19.199219-4.5s13.5 1.5 19.199219 4.5l30.300781-30.300781c-3-5.699219-4.5-12.300781-4.5-19.199219 0-24.902344 20.097656-45 45-45s45 20.097656 45 45c0 6.898438-1.5 13.5-4.5 19.199219l30.300781 30.300781c5.699219-3 12.300781-4.5 19.199219-4.5 19.5 0 36.300781 12.597656 42.300781 30h62.097657c.300781-4.800781.601562-9.902344.601562-15 0-107.402344-87.597656-195-195-195zm0 0"/><path d="m122 75c0-24.902344-20.097656-45-45-45-19.5 0-36.300781 12.597656-42.300781 30h-34.699219v30h34.699219c6 17.402344 22.800781 30 42.300781 30 6.898438 0 13.5-1.5 19.199219-4.5l31.800781 31.800781c2.699219-10.800781 6.300781-21.300781 11.101562-31.5l-21.601562-21.601562c3-5.699219 4.5-12.300781 4.5-19.199219zm0 0"/><path d="m76.792969 498.84375 116.246093-116.25c-25.234374-16.734375-46.898437-38.398438-63.632812-63.632812l-116.246094 116.25c-17.546875 17.550781-17.546875 46.085937 0 63.632812 17.535156 17.535156 46.085938 17.550781 63.632813 0zm0 0"/></svg>