<svg xmlns="http://www.w3.org/2000/svg" width="8" height="10.962" viewBox="0 0 8 10.962">
  <g id="right-arrow_11_" data-name="right-arrow(11)" transform="translate(0 -16.021)">
    <g id="Group_3094" data-name="Group 3094" transform="translate(0 16.02)">
      <path id="Path_1790" data-name="Path 1790" d="M7.835,21.118.406,16.058a.233.233,0,0,0-.342.118.583.583,0,0,0-.007.518L2.5,21.5.058,26.308a.585.585,0,0,0,.006.518.264.264,0,0,0,.222.157.21.21,0,0,0,.119-.039l7.428-5.06a.525.525,0,0,0,0-.766Z" transform="translate(0 -16.02)" fill="#cec5b1"/>
    </g>
  </g>
</svg>
